<svg xmlns="http://www.w3.org/2000/svg" xmlns:xlink="http://www.w3.org/1999/xlink" width="34" height="35" viewBox="0 0 34 35"><defs><style>.a{fill:#fff;}.b{clip-path:url(#a);}</style><clipPath id="a"><rect class="a" width="34" height="35" transform="translate(0.297 -0.253)"/></clipPath></defs><g transform="translate(-0.297 0.253)"><g transform="translate(0 0)"><g class="b" transform="translate(0 0)"><path class="a" d="M2084.66,295.039c-3.1-3.782-9.677-8.2-16.85-8.2-7.2,0-13.772,4.444-16.85,8.2a1,1,0,0,0,0,1.275c3.177,3.874,9.766,8.2,16.85,8.2,7.336,0,13.881-4.578,16.85-8.2a1,1,0,0,0,0-1.275Zm-10.026.637a6.824,6.824,0,1,1-6.824-6.824,6.832,6.832,0,0,1,6.824,6.824Zm-21.541,0a24.267,24.267,0,0,1,7.684-5.339,8.811,8.811,0,0,0,0,10.676,23.817,23.817,0,0,1-7.683-5.337Zm21.749,5.339a8.812,8.812,0,0,0,0-10.676,23.821,23.821,0,0,1,7.683,5.337,24.254,24.254,0,0,1-7.684,5.339Zm0,0" transform="translate(-2050.81 -278.48)"/></g></g><path class="a" d="M2204.334,351.169a3.415,3.415,0,1,0,3.416-3.415,3.419,3.419,0,0,0-3.416,3.415Zm4.822,0a1.406,1.406,0,1,1-1.406-1.406,1.408,1.408,0,0,1,1.406,1.406Zm0,0" transform="translate(-2190.749 -333.973)"/><path class="a" d="M2232.444,198.505a1,1,0,0,0,1-1v-2.344a1,1,0,0,0-2.009,0V197.5a1,1,0,0,0,1,1Zm0,0" transform="translate(-2215.443 -194.034)"/><path class="a" d="M2304.926,214.959a1,1,0,0,0,1.37-.375l1.337-2.344a1,1,0,1,0-1.745-1l-1.336,2.344a1,1,0,0,0,.375,1.37Zm0,0" transform="translate(-2281.932 -209.143)"/><path class="a" d="M2144.892,214.584a1,1,0,0,0,1.745-1l-1.337-2.344a1,1,0,0,0-1.745,1Zm0,0" transform="translate(-2135.256 -209.143)"/></g></svg>