<svg xmlns="http://www.w3.org/2000/svg" width="40.818" height="40.818" viewBox="0 0 40.818 40.818"><defs><style>.a{fill:#fff;}</style></defs><g transform="translate(-873.877 -41.602)"><path class="a" d="M905.766,41.6h-22.96a8.929,8.929,0,0,0-8.929,8.929V73.49a8.929,8.929,0,0,0,8.929,8.929h22.96a8.929,8.929,0,0,0,8.929-8.929V50.531A8.929,8.929,0,0,0,905.766,41.6Zm6.377,31.888a6.377,6.377,0,0,1-6.377,6.378h-22.96a6.378,6.378,0,0,1-6.378-6.378V50.531a6.378,6.378,0,0,1,6.378-6.378h22.96a6.377,6.377,0,0,1,6.377,6.378Z" transform="translate(0)"/><rect class="a" width="5.102" height="5.102" rx="2.551" transform="translate(882.806 50.531)"/><rect class="a" width="5.102" height="5.102" rx="2.551" transform="translate(882.806 59.459)"/><rect class="a" width="5.102" height="5.102" rx="2.551" transform="translate(882.806 68.388)"/><rect class="a" width="15.307" height="2.551" transform="translate(890.459 51.806)"/><rect class="a" width="15.307" height="2.551" transform="translate(890.459 60.735)"/><rect class="a" width="15.307" height="2.551" transform="translate(890.459 69.664)"/></g></svg>