<svg xmlns="http://www.w3.org/2000/svg" xmlns:xlink="http://www.w3.org/1999/xlink" width="38" height="39" viewBox="0 0 38 39"><defs><style>.a{clip-path:url(#a);}</style><clipPath id="a"><rect width="38" height="39" transform="translate(0.103 0.423)"/></clipPath></defs><g transform="translate(-0.103 -0.423)"><g class="a" transform="translate(0 0)"><path d="M2600,136.654a5.139,5.139,0,0,0-7.26,0l-1.817,1.827-19.345,19.336-.042.041c-.01.01-.01.021-.021.021-.02.031-.051.061-.071.092,0,.01-.011.01-.011.021-.02.031-.03.051-.051.082-.01.01-.01.02-.021.031-.01.031-.02.051-.031.082,0,.01-.009.01-.009.021l-4.293,12.907a1.011,1.011,0,0,0,.246,1.047,1.034,1.034,0,0,0,.729.3,1.218,1.218,0,0,0,.328-.051l12.9-4.3c.01,0,.01,0,.021-.01a.366.366,0,0,0,.092-.041.037.037,0,0,0,.021-.01c.031-.021.072-.041.1-.062s.062-.051.093-.072c.01-.011.02-.011.02-.021a.151.151,0,0,0,.042-.041l21.163-21.163a5.137,5.137,0,0,0,0-7.26Zm-19.1,29.039-7.146-7.146,17.887-17.888,7.147,7.146Zm-8.154-5.247,6.243,6.243-9.375,3.121Zm28.588-15.2-1.089,1.1L2593.1,139.2l1.1-1.1a3.081,3.081,0,0,1,4.354,0l2.792,2.793a3.09,3.09,0,0,1-.01,4.354Zm0,0" transform="translate(-2566.547 -134.157)"/></g></g></svg>