<svg xmlns="http://www.w3.org/2000/svg" width="47.6" height="47.597" viewBox="0 0 47.6 47.597"><g transform="translate(-214.699 -41.601)"><path d="M476.838,41.919a1.085,1.085,0,0,0-.779-.318,1.132,1.132,0,0,0-.779.318L459.568,57.631l-.043.044-.022.022c-.022.033-.055.066-.077.1,0,.011-.011.011-.011.022-.022.033-.033.055-.055.088-.011.011-.011.022-.022.033-.011.033-.022.055-.033.088,0,.011-.011.011-.011.022l-2.8,8.438a1.081,1.081,0,0,0,.264,1.119,1.1,1.1,0,0,0,.778.318,1.31,1.31,0,0,0,.351-.055L466.3,65.06c.011,0,.011,0,.022-.011a.391.391,0,0,0,.1-.044.039.039,0,0,0,.022-.011c.033-.022.077-.044.11-.066s.066-.055.1-.077c.011-.011.022-.011.022-.022s.033-.022.044-.044l15.722-15.723a1.091,1.091,0,0,0,0-1.547ZM460.819,60.44l3.105,3.105-4.652,1.547Zm5.135,2.03-4.06-4.059,14.165-14.165,4.059,4.06Zm0,0" transform="translate(-220.467)"/><path d="M253.782,138.977a1.1,1.1,0,0,0-1.1,1.1v20.507a3.3,3.3,0,0,1-3.292,3.292H220.185a3.3,3.3,0,0,1-3.292-3.292V131.373a3.3,3.3,0,0,1,3.292-3.292h20.507a1.1,1.1,0,0,0,0-2.195H220.185a5.489,5.489,0,0,0-5.486,5.486v29.208a5.488,5.488,0,0,0,5.486,5.486h29.207a5.488,5.488,0,0,0,5.486-5.486V140.074a1.1,1.1,0,0,0-1.1-1.1Zm0,0" transform="translate(0 -76.869)"/></g></svg>