<svg xmlns="http://www.w3.org/2000/svg" xmlns:xlink="http://www.w3.org/1999/xlink" width="47" height="48" viewBox="0 0 47 48"><defs><style>.a{clip-path:url(#a);}</style><clipPath id="a"><rect width="47" height="48" transform="translate(0 0)"/></clipPath></defs><g transform="translate(-0.296 0.253)"><g transform="translate(0.297 -0.253)"><g class="a" transform="translate(0 0)"><path d="M2097.456,298.13c-4.275-5.208-13.327-11.287-23.205-11.287-9.914,0-18.966,6.12-23.205,11.287a1.383,1.383,0,0,0,0,1.755c4.376,5.335,13.449,11.287,23.205,11.287,10.1,0,19.116-6.3,23.205-11.287a1.383,1.383,0,0,0,0-1.755Zm-13.807.878a9.4,9.4,0,1,1-9.4-9.4,9.409,9.409,0,0,1,9.4,9.4Zm-29.665,0a33.414,33.414,0,0,1,10.582-7.353,12.134,12.134,0,0,0,0,14.7,32.8,32.8,0,0,1-10.581-7.35Zm29.951,7.352a12.135,12.135,0,0,0,0-14.7,32.805,32.805,0,0,1,10.581,7.35,33.4,33.4,0,0,1-10.582,7.353Zm0,0" transform="translate(-2051.247 -274.977)"/></g></g><path d="M2204.334,352.458a4.7,4.7,0,1,0,4.7-4.7,4.709,4.709,0,0,0-4.7,4.7Zm6.641,0a1.937,1.937,0,1,1-1.937-1.937,1.939,1.939,0,0,1,1.937,1.937Zm0,0" transform="translate(-2185.737 -328.68)"/><path d="M2232.823,200.147a1.383,1.383,0,0,0,1.383-1.383v-3.228a1.383,1.383,0,1,0-2.767,0v3.228a1.383,1.383,0,0,0,1.384,1.383Zm0,0" transform="translate(-2209.522 -193.893)"/><path d="M2305.117,216.551a1.383,1.383,0,0,0,1.887-.516l1.841-3.228a1.384,1.384,0,1,0-2.4-1.37l-1.84,3.228a1.383,1.383,0,0,0,.516,1.887Zm0,0" transform="translate(-2273.562 -208.447)"/><path d="M2145.446,216.034a1.383,1.383,0,0,0,2.4-1.371l-1.841-3.229a1.384,1.384,0,0,0-2.4,1.371Zm0,0" transform="translate(-2132.288 -208.447)"/></g></svg>