<svg xmlns="http://www.w3.org/2000/svg" width="52.2" height="39.15" viewBox="0 0 52.2 39.15"><defs><style>.a{fill:#a8a8a8;}</style></defs><g transform="translate(-1488.35 -91.984)"><path class="a" d="M1528.256,127.54a4.35,4.35,0,1,1-4.35-4.35,4.35,4.35,0,0,1,4.35,4.35Zm0,0" transform="translate(-24.681 -24.681)"/><path class="a" d="M1534.025,91.984h-39.15a6.533,6.533,0,0,0-6.525,6.525v26.1c0,.122.031.237.037.359a1.607,1.607,0,0,0,.078.772,6.522,6.522,0,0,0,6.41,5.394h39.15a6.533,6.533,0,0,0,6.525-6.525v-26.1a6.533,6.533,0,0,0-6.525-6.525Zm-39.15,4.35h39.15a2.178,2.178,0,0,1,2.175,2.175v17.268l-11.44-11.441a3.817,3.817,0,0,0-5.394,0l-10.353,10.353-2.741-2.74a3.817,3.817,0,0,0-5.394,0l-8.178,8.178V98.509a2.178,2.178,0,0,1,2.175-2.175Zm0,0" transform="translate(0 0)"/></g></svg>