<svg xmlns="http://www.w3.org/2000/svg" xmlns:xlink="http://www.w3.org/1999/xlink" width="766.604" height="628.153" viewBox="0 0 766.604 628.153"><defs><style>.a{fill:#50a4fa;}.b{fill:#1d43b8;}.c{fill:url(#a);}.d{fill:url(#b);}.e{fill:url(#c);}.f{fill:url(#d);}.g{fill:url(#e);}.h{fill:url(#f);}.i{fill:#bf8286;}.j{fill:#fab9be;}.k{fill:#1e2859;}.l{fill:#fff;}.m{fill:#d6969b;}.n{fill:url(#g);}</style><linearGradient id="a" x1="-6.662" y1="0.5" x2="-7.662" y2="0.5" gradientUnits="objectBoundingBox"><stop offset="0" stop-color="#d6969b"/><stop offset="0.992" stop-color="#fab9be"/></linearGradient><linearGradient id="b" x1="-8.891" y1="0.215" x2="-9.572" y2="0.847" gradientUnits="objectBoundingBox"><stop offset="0" stop-color="#50a4fa"/><stop offset="1" stop-color="#1d43b8"/></linearGradient><linearGradient id="c" x1="-16.945" y1="0.191" x2="-17.238" y2="0.952" gradientUnits="objectBoundingBox"><stop offset="0" stop-color="#1d43b8"/><stop offset="0.992" stop-color="#16348f"/></linearGradient><linearGradient id="d" x1="-17.252" y1="-0.24" x2="-18.882" y2="1.038" gradientUnits="objectBoundingBox"><stop offset="0" stop-color="#4399f0"/><stop offset="1" stop-color="#1d43b8"/></linearGradient><linearGradient id="e" x1="-9.307" y1="0.165" x2="-10.081" y2="0.724" gradientUnits="objectBoundingBox"><stop offset="0" stop-color="#fab9be"/><stop offset="0.992" stop-color="#fab9be"/></linearGradient><linearGradient id="f" x1="-27.323" y1="0.5" x2="-28.324" y2="0.5" gradientUnits="objectBoundingBox"><stop offset="0.008" stop-color="#fab9be"/><stop offset="0.335" stop-color="#f6b5ba"/><stop offset="0.673" stop-color="#e9a9ae"/><stop offset="1" stop-color="#d6969b"/></linearGradient><linearGradient id="g" x1="-12.148" y1="-0.723" x2="-13.408" y2="0.702" gradientUnits="objectBoundingBox"><stop offset="0" stop-color="#fab9be"/><stop offset="0.992" stop-color="#d6969b"/></linearGradient></defs><g transform="translate(0 0)"><path class="a" d="M44.574,259.034c-20.813,9.967-55.44,2.8-41.257-30.893,15.262-36.26,39.312-71.654,65.733-102.9,31.859-37.68,77.318-88.123,109.39-111.108,62.269-44.636,58.28,28.054,48.952,58.266C213.9,116.138,167,155.039,132.085,189.467,104.628,216.541,67.275,248.159,44.574,259.034Z" transform="translate(225.04 236.588)"/><path class="b" d="M205.946,0a150.11,150.11,0,0,1-3.791,35.82C190.57,83.65,145.11,129.493,111.534,169.445c-26.407,31.418-62.582,68.63-84.943,82.358A42.926,42.926,0,0,1,0,257.893c9.328,6.772,25.271,6.559,36.9.994,22.7-10.861,60.055-42.492,87.512-69.567,34.911-34.428,81.819-73.329,95.306-117.071C226.7,49.577,230.692,2.981,205.946,0Z" transform="translate(232.732 236.72)"/><path class="c" d="M239.576,153.788c-19.621-5.707-96.939-66.727-125.518-85.993C108.89,64.317,87.665,48.3,76.392,45.576c-16.4-3.975-35.805-2.371-44-7.169C23.309,33.083-1.608,4.858.082.656c1.647-4.1,19.28,12.11,29.3,18.9,4.5,3.038,9.015,3.067,14.084,2.91,6.105-.2,12.607-.71,17.051-1.079,3.223-.27,5.409-1.022,5.168-2.286-.4-2.073-.426-3.052-4.131-4.8-4.373-2.044-15.688-4.089-18.712-6.474-3.28-2.584-2.669-3.564.838-3.123,5.565.71,18.57,1.874,27.713,4.827C77.272,11.418,81.617,15,83.888,16.742,93.3,23.925,95.2,30.726,106.235,36.518c45.644,23.965,109.788,45.658,139.19,59.373,14.623,6.815,31.518,23.568,28.877,43.969C273.209,148.492,259.1,159.467,239.576,153.788Z" transform="translate(0 344.318)"/><path class="d" d="M288.99,414H5.314s3.705-78.866,0-146.218C1.509,198.714-6.1,137.836,9.034,83.5,14.06,65.458,23.4,39.023,54.593,24.244,76.812,13.709,122.087-.4,160.277.009c36.274.4,66.869,10.989,83.636,18.272,44.764,19.464,43.969,39.2,46.908,64.768,6.914,60.026-5.594,145.848-5.594,221.875C285.228,367.108,288.99,414,288.99,414Z" transform="translate(369.825 214.152)"/><path class="e" d="M162.034,254.307c0,62.2,3.748,109.092,3.748,109.092H0c42.9-10.208,103.015-21.424,107.175-71.583,1.973-24.036-10.676-47.93-13.7-71.739-3.081-24.249-1.335-45.36,8.547-66.017,9.5-19.9,15.191-42.052,9.5-68.431-2.641-12.082-11.926-27.174-14.652-39.156-9.924-43.444,16.98-57.187,51.11-38.02a212.93,212.93,0,0,1,18.215,11.372c.539,4.032.923,8.263,1.434,12.621C174.527,92.458,162.034,178.281,162.034,254.307Z" transform="translate(493.019 264.754)"/><path class="f" d="M170.429,262.793c2.13,40.477-43.742,31.688-65.322-.88-17.747-26.79-24.334-50.84-43.642-95.306-19.592-45.119-38.02-58.677-51.621-97.691-12.21-35.039-24.292-92.41,37.949-58.649C119.105,48.954,166.411,186.653,170.429,262.793Z" transform="translate(591.785 237.627)"/><path class="g" d="M276.734,119.648c-18.9,0-107.6-41.47-144.2-55.7-6.261-2.428-28.182-12.082-40.661-12.21-18.158-.185-40.647,4.046-50.443,1.093C28.551,48.959,1.037,29.353.043,23.944-1.9,13.367,62.71,15.184,62.71,15.184S41.968-1.668,53.34.135c11.6,1.846,22.162,3.336,30.283,9,8.533,5.949,23.511,19.763,36.43,23.4,52.53,14.779,110.767,16.5,137.061,23.7,15.9,4.359,32.853,17.108,38.049,30.5C298.257,94.732,307.627,119.648,276.734,119.648Z" transform="translate(462.324 407.577)"/><path class="h" d="M101,103.952l-5.778-1.207A16.868,16.868,0,0,1,81.549,87.157C79.533,52.331,76.779,0,76.779,0H18.57V91.572A13.541,13.541,0,0,1,7.908,104.762c-2.485.554-4.941,1.122-7.368,1.732A13.434,13.434,0,0,0,0,110.4c0,14.907,21.807,26.989,48.7,26.989S105.67,124.709,101,103.952Z" transform="translate(472.1 115.319)"/><path class="i" d="M61.133,54.83c-6.488,18.4-25.839,37.183-47.589,36.1A31.874,31.874,0,0,1,0,87.242V0H58.195C58.209,0,59.629,26.833,61.133,54.83Z" transform="translate(490.665 115.291)"/><path class="j" d="M87.764,68.1c-9,43.33-28.153,55.54-47.107,55.54-19.834,0-31.845-8.66-37.836-50.131-6.46-44.636-3-61.4,22.73-70.986,10.918-4.06,38.773-4.458,51.579,8.348C88.417,22.14,91.171,51.713,87.764,68.1Z" transform="translate(463.321 41.799)"/><path class="k" d="M129.654,50.863c-2.13-16.625-12.735-29.4-26.634-24.9C95.339,14.263,79.481,8.456,70.579,5.588c-11.656-3.748-32.9-7.4-45.3-4.6C12.044,3.97,8.835,12.872,23.757,17.173c-6.73,2.527-14.808,8.958-19,13.97C.871,35.8-5.362,51.375,8.892,50.977c-5.864,16.142,10.052,28.551,17.221,32.3C24.594,67.645,31.3,56.77,38.508,54.455c10.733-3.45,36.444-2.1,47.816,5.934,15.333,10.833,15.645,39.369,14.4,48.668-.426,3.152-10.818,17.278-24.746,17.278-6.374,0-12.806-4.9-21.168-4.9-7.695,0-10.378,3.89-16.341,3.89-8.93,0-8.93-14.808-10.776-15.418-5.793-1.888-13,17.463-13,44.437,0,22.943,14.155,44.423,34.684,44.423,23.766,0,38.56-9.2,49.406-22.9,13.076-16.54,12.664-39.568,10.194-60.551,6.218-5.154,10.975-11.954,12.522-15.929C127.326,84.341,131.67,66.58,129.654,50.863Z" transform="translate(437.716 0)"/><path class="l" d="M30.24,1.455c0,1.207-6.772,4.231-15.12,4.231S0,2.25,0,.589C0-.519,6.772.276,15.12.276S30.24.049,30.24,1.455Z" transform="translate(480.783 136.353)"/><path class="m" d="M17.082,16.426C15.8,25.413,8.309,34.244,3.737,32.852.017,31.731-.153,25.5.06,16.426.259,7.865,1.451,0,7.017,0S18.616,5.622,17.082,16.426Z" transform="translate(546.328 87.038)"/><path class="n" d="M218.522,71.445c-8.987,4.174-18.627,2.541-26.648.639-19.124-4.515-37.112-13.97-54.943-21.977C112.54,39.161,88.12,28.03,63.389,17.879,52.584,13.45,36.542,7.1,24.942,5.286,17.006,4.051-1.607,6.947.111,4.8,4.158-.237,27.2-1.486,40.971,1.893,60.8,6.763,74.477,10.7,103.6,25.517c44.707,22.744,88.35,40.8,120,32.867C233.032,56.013,227.1,67.456,218.522,71.445Z" transform="translate(532.66 454.757)"/><path class="k" d="M54.489,0,0,6.147,25.214,48.128,79.7,41.967Z" transform="translate(445.203 380.78)"/><path class="l" d="M96.065,82.12c-4.046,2.186,0-14.254-8.618-29.076-8.6-14.794-22.034-20.245-34.57-25.03-11.7-4.472-28.082-5.622-42.052-8.746C-21.616,12.042,27.322-1.388,47.056.117,74.869,2.246,94.361,5.994,99.3,37.271,100.452,44.6,102.014,78.9,96.065,82.12Z" transform="translate(666.219 438.176)"/><path class="l" d="M6.976,93.054C5.684,89.547,20.193,86.4,22.663,75.776c3.024-12.948-8.277-30.794-18.471-40.122-6.417-5.878-4.316-14-1.292-19.862C7.274,7.316,12.328-4.51,23.529,1.765c14.3,8.007,24.9,28.324,28.338,39,3.109,9.626,5.139,28.039,2.556,34.925C48.957,90.271,9.758,100.607,6.976,93.054Z" transform="translate(240.006 408.218)"/><path class="k" d="M4.754,7.326a.7.7,0,0,0-.071-.284.718.718,0,0,0-.128-.256c-.028-.028-.014-.057-.043-.085-1.6-1.391-2.13-4.089-1.051-5.438.014-.028,0-.057.028-.071A.6.6,0,0,0,3.562.909.54.54,0,0,0,3.59.61C3.59.582,3.6.568,3.6.539c-.028-.085-.1-.114-.142-.185A1.01,1.01,0,0,0,3.349.142c-.028-.014-.057,0-.071-.028a.587.587,0,0,0-.27-.071A.59.59,0,0,0,2.7.014C2.667.014,2.653,0,2.625,0A3.89,3.89,0,0,0,.013,4.117,4.277,4.277,0,0,0,3.9,8.078c.043,0,.085.014.128.014a.78.78,0,0,0,.554-.256c.014-.014.043-.014.057-.028.042-.043.028-.114.057-.17a.722.722,0,0,0,.128-.227C4.783,7.383,4.754,7.354,4.754,7.326Z" transform="translate(469.285 94.563)"/><path class="k" d="M4.754,7.326a.7.7,0,0,0-.071-.284.723.723,0,0,0-.128-.256c-.028-.028-.014-.057-.043-.085-1.6-1.391-2.13-4.089-1.051-5.438.014-.028,0-.057.028-.071A.6.6,0,0,0,3.562.909.54.54,0,0,0,3.59.61C3.59.582,3.6.568,3.6.539c-.028-.085-.1-.114-.142-.185A1.014,1.014,0,0,0,3.349.142c-.028-.014-.057,0-.071-.028a.588.588,0,0,0-.27-.071A.59.59,0,0,0,2.7.014C2.667.014,2.653,0,2.625,0A3.891,3.891,0,0,0,.013,4.117,4.277,4.277,0,0,0,3.9,8.078c.043,0,.085.014.128.014a.779.779,0,0,0,.554-.256c.014-.014.043-.014.057-.028.043-.043.029-.114.057-.17a.719.719,0,0,0,.128-.227C4.769,7.383,4.74,7.368,4.754,7.326Z" transform="translate(509.014 95.06)"/><path class="l" d="M15.312,56.051,37.886,36.586c-4.1-1.689-11.741-5.111-14.808-7.652-5.75-4.77-10.336-9.257-8.49-20.4C15.326,4.089,24.114-.014,16.562,0A15.817,15.817,0,0,0,3.2,7.78C.32,13.09-.419,21.012.206,26.762,1.37,37.722,7.859,47.9,15.312,56.051Z" transform="translate(467.582 211.307)"/><path class="l" d="M62.326,3.53c-2.57-6.957-6.63-1.7-6.971-.426C52.672,13.411,47.887,19.686,36.5,25.777c-8.206,4.387-21.055,8.476-32.64,8.206A29.98,29.98,0,0,0,0,34.025L18.6,57.579C39.767,49.685,68.544,26.685,62.326,3.53Z" transform="translate(512.711 214.592)"/><path class="k" d="M33.87,5.593C24.457-1.321,9.777-1.832.421,4.1.052,4.329-.132,6.558.109,6.942A.783.783,0,0,0,1.2,7.183a30.737,30.737,0,0,1,31.845-.227.724.724,0,0,0,.412.114c.043,0,.085-.028.128-.028s.071-.014.113-.028a.774.774,0,0,0,.44-.327A.85.85,0,0,0,33.87,5.593Z" transform="translate(497.507 84.583)"/><path class="k" d="M29.591,34.415c-3.422-.327-7.354-1.278-8.391-2.627a.838.838,0,0,1-.2-.7c.369-2.257.809-4.5,1.292-6.857.823-4.117,1.746-8.788,2.456-14.552.4-3.223-.525-6.857-4.089-7.865.057-.426-.284-1.391-.71-1.434C9.445-.894,3.241,1.236.26,3.564.2,3.607.2,3.678.174,3.72a.653.653,0,0,0-.142.256.638.638,0,0,0-.014.284c0,.071-.028.128-.014.185s.071.057.085.1,0,.085.028.128.1.028.142.071a.774.774,0,0,0,.341.17c.057.014.085.071.142.071s.1-.043.156-.057.071.014.114,0A39.092,39.092,0,0,1,19.724,3.181c3.819.667,3.592,4.983,3.436,6.289-.7,5.707-1.618,10.336-2.428,14.424-.469,2.371-.923,4.643-1.292,6.914a2.458,2.458,0,0,0,.511,1.917c1.789,2.328,7.723,3.067,9.5,3.237h.071a.775.775,0,0,0,.071-1.547Z" transform="translate(461.134 87.052)"/></g></svg>