<svg xmlns="http://www.w3.org/2000/svg" width="94.4" height="94.4" viewBox="0 0 94.4 94.4"><defs><style>.a{fill:#2d8ffc;}</style></defs><g transform="translate(-501.501 -686.945)"><path class="a" d="M548.7,686.945a47.2,47.2,0,1,0,47.2,47.2,47.253,47.253,0,0,0-47.2-47.2Zm0,88.869a41.669,41.669,0,1,1,41.669-41.669A41.716,41.716,0,0,1,548.7,775.814Zm0,0"/><path class="a" d="M634.11,770.664A19.359,19.359,0,1,0,614.751,751.3a19.382,19.382,0,0,0,19.359,19.359Zm0-33.188A13.828,13.828,0,1,1,620.282,751.3a13.844,13.844,0,0,1,13.828-13.828Zm0,0" transform="translate(-85.409 -33.937)"/><path class="a" d="M625.182,918.48a19.378,19.378,0,0,0-14.5-6.535H577.493a19.378,19.378,0,0,0-14.5,6.535l-1.311,1.482.978,1.719a36.146,36.146,0,0,0,62.855,0l.978-1.719Zm-31.095,15.959a30.7,30.7,0,0,1-25.515-13.7,13.846,13.846,0,0,1,8.921-3.264h33.188a13.846,13.846,0,0,1,8.921,3.264,30.7,30.7,0,0,1-25.515,13.7Zm0,0" transform="translate(-45.386 -169.687)"/></g></svg>